<svg width="30" height="30" viewBox="0 0 30 30" fill="none" xmlns="http://www.w3.org/2000/svg">
<circle cx="15" cy="15" r="15" fill="#3E2FED"/>
<mask id="path-2-inside-1" fill="white">
<path fill-rule="evenodd" clip-rule="evenodd" d="M21.588 7.92377C23.4071 7.92377 24.8871 9.40375 24.8871 11.2229C24.8871 12.1544 24.499 12.997 23.876 13.5974C25.4351 14.4216 26.5 16.0605 26.5 17.9433V19.043C26.5 19.4479 26.1718 19.7761 25.7668 19.7761C25.3619 19.7761 25.0337 19.4479 25.0337 19.043V17.9433C25.0337 16.1406 23.642 14.6565 21.8764 14.5095C21.7813 14.5177 21.6851 14.522 21.588 14.522C21.4909 14.522 21.3949 14.5178 21.3 14.5095C19.9884 14.6192 18.8572 15.4717 18.3872 16.6946C19.2772 17.5841 19.8284 18.8124 19.8284 20.1671V21.2669C19.8284 21.6718 19.5003 22 19.0953 22C18.6904 22 18.3621 21.6718 18.3621 21.2669V20.1671C18.3621 18.3641 16.9702 16.8801 15.2044 16.7333C15.1095 16.7416 15.0134 16.7458 14.9164 16.7458C14.8194 16.7458 14.7233 16.7416 14.6284 16.7333C13.9532 16.7894 13.3327 17.0411 12.8237 17.4314C12.7846 17.4711 12.7407 17.5067 12.6927 17.537C11.9456 18.1696 11.4706 19.114 11.4706 20.1671V21.2669C11.4706 21.6718 11.1424 22 10.7375 22C10.3325 22 10.0043 21.6718 10.0043 21.2669V20.1671C10.0044 18.8068 10.5602 17.5739 11.4567 16.6835C10.975 15.4656 9.84273 14.6186 8.53277 14.5095C8.4379 14.5178 8.34188 14.522 8.24491 14.522C8.14783 14.522 8.05173 14.5178 7.95677 14.5095C6.19098 14.6563 4.7991 16.1405 4.7991 17.9433V19.043C4.7991 19.448 4.47091 19.7762 4.06594 19.7762C3.66101 19.7762 3.33278 19.448 3.33283 19.043V17.9433C3.33286 16.0605 4.39771 14.4217 5.95677 13.5975C5.33382 12.997 4.94581 12.1544 4.94581 11.2229C4.94581 9.40375 6.42574 7.92377 8.24491 7.92377C10.0641 7.92377 11.544 9.40375 11.544 11.2229C11.544 12.1539 11.1563 12.9961 10.5339 13.5965C11.0099 13.8473 11.442 14.1746 11.8124 14.5647C11.6862 14.2154 11.6173 13.8389 11.6173 13.4467C11.6173 11.6275 13.0973 10.1476 14.9164 10.1476C16.7356 10.1476 18.2155 11.6275 18.2155 13.4467C18.2155 13.8441 18.1449 14.2254 18.0155 14.5786C18.3864 14.1831 18.8208 13.8515 19.3004 13.5979C18.6771 12.9974 18.2889 12.1546 18.2889 11.2229C18.2889 9.40375 19.7688 7.92377 21.588 7.92377ZM21.3321 13.0379C20.4421 12.9131 19.7551 12.1468 19.7551 11.2229C19.7551 10.2121 20.5772 9.39004 21.588 9.39004C22.5987 9.39004 23.4208 10.2121 23.4208 11.2229C23.4208 12.1467 22.734 12.913 21.844 13.0379C21.7592 13.0335 21.6739 13.0313 21.588 13.0313C21.5023 13.0313 21.417 13.0335 21.3321 13.0379ZM7.98869 13.0379C7.09882 12.9129 6.41208 12.1467 6.41208 11.2229C6.41208 10.2121 7.23415 9.39004 8.24491 9.39004C9.25566 9.39004 10.0777 10.2121 10.0777 11.2229C10.0777 12.1467 9.39094 12.913 8.50101 13.0379C8.41609 13.0335 8.3307 13.0313 8.24489 13.0313C8.15896 13.0313 8.07355 13.0335 7.98869 13.0379ZM14.6603 15.2617C14.7451 15.2573 14.8305 15.2551 14.9164 15.2551C15.0023 15.2551 15.0877 15.2573 15.1725 15.2617C16.0624 15.1368 16.7493 14.3703 16.7493 13.4467C16.7493 12.436 15.9272 11.6139 14.9164 11.6139C13.9057 11.6139 13.0836 12.436 13.0836 13.4467C13.0836 14.3706 13.7704 15.1368 14.6603 15.2617Z"/>
</mask>
<path fill-rule="evenodd" clip-rule="evenodd" d="M21.588 7.92377C23.4071 7.92377 24.8871 9.40375 24.8871 11.2229C24.8871 12.1544 24.499 12.997 23.876 13.5974C25.4351 14.4216 26.5 16.0605 26.5 17.9433V19.043C26.5 19.4479 26.1718 19.7761 25.7668 19.7761C25.3619 19.7761 25.0337 19.4479 25.0337 19.043V17.9433C25.0337 16.1406 23.642 14.6565 21.8764 14.5095C21.7813 14.5177 21.6851 14.522 21.588 14.522C21.4909 14.522 21.3949 14.5178 21.3 14.5095C19.9884 14.6192 18.8572 15.4717 18.3872 16.6946C19.2772 17.5841 19.8284 18.8124 19.8284 20.1671V21.2669C19.8284 21.6718 19.5003 22 19.0953 22C18.6904 22 18.3621 21.6718 18.3621 21.2669V20.1671C18.3621 18.3641 16.9702 16.8801 15.2044 16.7333C15.1095 16.7416 15.0134 16.7458 14.9164 16.7458C14.8194 16.7458 14.7233 16.7416 14.6284 16.7333C13.9532 16.7894 13.3327 17.0411 12.8237 17.4314C12.7846 17.4711 12.7407 17.5067 12.6927 17.537C11.9456 18.1696 11.4706 19.114 11.4706 20.1671V21.2669C11.4706 21.6718 11.1424 22 10.7375 22C10.3325 22 10.0043 21.6718 10.0043 21.2669V20.1671C10.0044 18.8068 10.5602 17.5739 11.4567 16.6835C10.975 15.4656 9.84273 14.6186 8.53277 14.5095C8.4379 14.5178 8.34188 14.522 8.24491 14.522C8.14783 14.522 8.05173 14.5178 7.95677 14.5095C6.19098 14.6563 4.7991 16.1405 4.7991 17.9433V19.043C4.7991 19.448 4.47091 19.7762 4.06594 19.7762C3.66101 19.7762 3.33278 19.448 3.33283 19.043V17.9433C3.33286 16.0605 4.39771 14.4217 5.95677 13.5975C5.33382 12.997 4.94581 12.1544 4.94581 11.2229C4.94581 9.40375 6.42574 7.92377 8.24491 7.92377C10.0641 7.92377 11.544 9.40375 11.544 11.2229C11.544 12.1539 11.1563 12.9961 10.5339 13.5965C11.0099 13.8473 11.442 14.1746 11.8124 14.5647C11.6862 14.2154 11.6173 13.8389 11.6173 13.4467C11.6173 11.6275 13.0973 10.1476 14.9164 10.1476C16.7356 10.1476 18.2155 11.6275 18.2155 13.4467C18.2155 13.8441 18.1449 14.2254 18.0155 14.5786C18.3864 14.1831 18.8208 13.8515 19.3004 13.5979C18.6771 12.9974 18.2889 12.1546 18.2889 11.2229C18.2889 9.40375 19.7688 7.92377 21.588 7.92377ZM21.3321 13.0379C20.4421 12.9131 19.7551 12.1468 19.7551 11.2229C19.7551 10.2121 20.5772 9.39004 21.588 9.39004C22.5987 9.39004 23.4208 10.2121 23.4208 11.2229C23.4208 12.1467 22.734 12.913 21.844 13.0379C21.7592 13.0335 21.6739 13.0313 21.588 13.0313C21.5023 13.0313 21.417 13.0335 21.3321 13.0379ZM7.98869 13.0379C7.09882 12.9129 6.41208 12.1467 6.41208 11.2229C6.41208 10.2121 7.23415 9.39004 8.24491 9.39004C9.25566 9.39004 10.0777 10.2121 10.0777 11.2229C10.0777 12.1467 9.39094 12.913 8.50101 13.0379C8.41609 13.0335 8.3307 13.0313 8.24489 13.0313C8.15896 13.0313 8.07355 13.0335 7.98869 13.0379ZM14.6603 15.2617C14.7451 15.2573 14.8305 15.2551 14.9164 15.2551C15.0023 15.2551 15.0877 15.2573 15.1725 15.2617C16.0624 15.1368 16.7493 14.3703 16.7493 13.4467C16.7493 12.436 15.9272 11.6139 14.9164 11.6139C13.9057 11.6139 13.0836 12.436 13.0836 13.4467C13.0836 14.3706 13.7704 15.1368 14.6603 15.2617Z" fill="white"/>
<path d="M23.876 13.5974L23.7826 13.7743L23.5383 13.6452L23.7372 13.4534L23.876 13.5974ZM21.8764 14.5095L21.859 14.3102L21.876 14.3087L21.893 14.3102L21.8764 14.5095ZM21.3 14.5095L21.2833 14.3102L21.3003 14.3088L21.3173 14.3103L21.3 14.5095ZM18.3872 16.6946L18.2458 16.836L18.1539 16.7441L18.2005 16.6228L18.3872 16.6946ZM15.2044 16.7333L15.1871 16.5341L15.204 16.5326L15.221 16.534L15.2044 16.7333ZM14.6284 16.7333L14.6119 16.534L14.6288 16.5326L14.6457 16.5341L14.6284 16.7333ZM12.8237 17.4314L12.6811 17.2911L12.6909 17.2812L12.702 17.2727L12.8237 17.4314ZM12.6927 17.537L12.5634 17.3843L12.5741 17.3753L12.586 17.3678L12.6927 17.537ZM10.0043 20.1671H9.80431V20.1671L10.0043 20.1671ZM11.4567 16.6835L11.6427 16.61L11.6912 16.7325L11.5976 16.8254L11.4567 16.6835ZM8.53277 14.5095L8.51547 14.3103L8.53242 14.3088L8.54937 14.3102L8.53277 14.5095ZM7.95677 14.5095L7.9402 14.3102L7.95714 14.3088L7.97408 14.3103L7.95677 14.5095ZM3.33283 19.043H3.53283V19.0431L3.33283 19.043ZM3.33283 17.9433H3.13283V17.9433L3.33283 17.9433ZM5.95677 13.5975L6.09557 13.4535L6.29445 13.6452L6.05025 13.7743L5.95677 13.5975ZM10.5339 13.5965L10.4407 13.7735L10.196 13.6446L10.3951 13.4526L10.5339 13.5965ZM11.8124 14.5647L12.0005 14.4968L11.6673 14.7024L11.8124 14.5647ZM18.0155 14.5786L18.1613 14.7154L17.8277 14.5098L18.0155 14.5786ZM19.3004 13.5979L19.4391 13.4539L19.6381 13.6456L19.3938 13.7747L19.3004 13.5979ZM21.3321 13.0379L21.3425 13.2376L21.3233 13.2386L21.3044 13.236L21.3321 13.0379ZM21.844 13.0379L21.8718 13.2359L21.8529 13.2386L21.8337 13.2376L21.844 13.0379ZM21.588 13.0313L21.588 13.2313H21.588V13.0313ZM7.98869 13.0379L7.999 13.2376L7.97986 13.2386L7.96088 13.2359L7.98869 13.0379ZM8.50101 13.0379L8.52881 13.2359L8.50982 13.2386L8.49067 13.2376L8.50101 13.0379ZM14.6603 15.2617L14.6706 15.4614L14.6515 15.4624L14.6325 15.4598L14.6603 15.2617ZM15.1725 15.2617L15.2003 15.4598L15.1813 15.4624L15.1622 15.4614L15.1725 15.2617ZM24.6871 11.2229C24.6871 9.5142 23.2967 8.12377 21.588 8.12377V7.72377C23.5176 7.72377 25.0871 9.29329 25.0871 11.2229H24.6871ZM23.7372 13.4534C24.3228 12.889 24.6871 12.0977 24.6871 11.2229H25.0871C25.0871 12.2111 24.6751 13.105 24.0148 13.7414L23.7372 13.4534ZM23.9695 13.4206C25.5913 14.278 26.7 15.9832 26.7 17.9433H26.3C26.3 16.1377 25.2789 14.5653 23.7826 13.7743L23.9695 13.4206ZM26.7 17.9433V19.043H26.3V17.9433H26.7ZM26.7 19.043C26.7 19.5584 26.2823 19.9761 25.7668 19.9761V19.5761C26.0613 19.5761 26.3 19.3375 26.3 19.043H26.7ZM25.7668 19.9761C25.2515 19.9761 24.8337 19.5584 24.8337 19.043H25.2337C25.2337 19.3375 25.4724 19.5761 25.7668 19.5761V19.9761ZM24.8337 19.043V17.9433H25.2337V19.043H24.8337ZM24.8337 17.9433C24.8337 16.2455 23.5227 14.8472 21.8598 14.7088L21.893 14.3102C23.7613 14.4657 25.2337 16.0356 25.2337 17.9433H24.8337ZM21.588 14.322C21.6793 14.322 21.7697 14.318 21.859 14.3102L21.8937 14.7087C21.7929 14.7175 21.6909 14.722 21.588 14.722V14.322ZM21.3173 14.3103C21.4065 14.318 21.4967 14.322 21.588 14.322V14.722C21.4852 14.722 21.3833 14.7175 21.2827 14.7088L21.3173 14.3103ZM21.3167 14.7088C20.0817 14.8121 19.0165 15.6149 18.5739 16.7663L18.2005 16.6228C18.698 15.3286 19.8951 14.4263 21.2833 14.3102L21.3167 14.7088ZM19.6284 20.1671C19.6284 18.8678 19.0999 17.6897 18.2458 16.836L18.5286 16.5531C19.4544 17.4785 20.0284 18.7571 20.0284 20.1671H19.6284ZM19.6284 21.2669V20.1671H20.0284V21.2669H19.6284ZM19.0953 21.8C19.3898 21.8 19.6284 21.5613 19.6284 21.2669H20.0284C20.0284 21.7822 19.6107 22.2 19.0953 22.2V21.8ZM18.5621 21.2669C18.5621 21.5614 18.8008 21.8 19.0953 21.8V22.2C18.5799 22.2 18.1621 21.7823 18.1621 21.2669H18.5621ZM18.5621 20.1671V21.2669H18.1621V20.1671H18.5621ZM15.221 16.534C17.0895 16.6893 18.5621 18.2591 18.5621 20.1671H18.1621C18.1621 18.469 16.8509 17.0709 15.1878 16.9326L15.221 16.534ZM14.9164 16.5458C15.0077 16.5458 15.0979 16.5418 15.1871 16.5341L15.2217 16.9326C15.121 16.9413 15.0192 16.9458 14.9164 16.9458V16.5458ZM14.6457 16.5341C14.7349 16.5418 14.8252 16.5458 14.9164 16.5458V16.9458C14.8136 16.9458 14.7118 16.9413 14.6111 16.9326L14.6457 16.5341ZM12.702 17.2727C13.2403 16.8599 13.8971 16.5934 14.6119 16.534L14.645 16.9326C14.0093 16.9855 13.425 17.2223 12.9454 17.5901L12.702 17.2727ZM12.586 17.3678C12.6208 17.3458 12.6526 17.3201 12.6811 17.2911L12.9663 17.5716C12.9165 17.6222 12.8606 17.6675 12.7994 17.7061L12.586 17.3678ZM11.2706 20.1671C11.2706 19.0525 11.7736 18.0532 12.5634 17.3843L12.8219 17.6896C12.1177 18.2859 11.6706 19.1754 11.6706 20.1671H11.2706ZM11.2706 21.2669V20.1671H11.6706V21.2669H11.2706ZM10.7375 21.8C11.032 21.8 11.2706 21.5613 11.2706 21.2669H11.6706C11.6706 21.7822 11.2529 22.2 10.7375 22.2V21.8ZM10.2043 21.2669C10.2043 21.5614 10.443 21.8 10.7375 21.8V22.2C10.2221 22.2 9.80431 21.7823 9.80431 21.2669H10.2043ZM10.2043 20.1671V21.2669H9.80431V20.1671H10.2043ZM11.5976 16.8254C10.7373 17.6799 10.2044 18.8624 10.2043 20.1671L9.80431 20.1671C9.80436 18.7512 10.3832 17.4679 11.3158 16.5416L11.5976 16.8254ZM8.54937 14.3102C9.93559 14.4256 11.1331 15.3218 11.6427 16.61L11.2707 16.7571C10.8168 15.6094 9.74987 14.8116 8.51618 14.7088L8.54937 14.3102ZM8.24491 14.322C8.3361 14.322 8.42634 14.318 8.51547 14.3103L8.55008 14.7088C8.44946 14.7175 8.34767 14.722 8.24491 14.722V14.322ZM7.97408 14.3103C8.0633 14.318 8.15362 14.322 8.24491 14.322V14.722C8.14205 14.722 8.04017 14.7175 7.93946 14.7087L7.97408 14.3103ZM4.5991 17.9433C4.5991 16.0355 6.07167 14.4656 7.9402 14.3102L7.97334 14.7088C6.3103 14.8471 4.9991 16.2455 4.9991 17.9433H4.5991ZM4.5991 19.043V17.9433H4.9991V19.043H4.5991ZM4.06594 19.5762C4.36045 19.5762 4.5991 19.3375 4.5991 19.043H4.9991C4.9991 19.5584 4.58138 19.9762 4.06594 19.9762V19.5762ZM3.53283 19.0431C3.53279 19.3375 3.77146 19.5762 4.06594 19.5762V19.9762C3.55057 19.9762 3.13277 19.5585 3.13283 19.043L3.53283 19.0431ZM3.53283 17.9433V19.043H3.13283V17.9433H3.53283ZM6.05025 13.7743C4.5539 14.5653 3.53286 16.1378 3.53283 17.9433L3.13283 17.9433C3.13286 15.9832 4.24151 14.278 5.8633 13.4207L6.05025 13.7743ZM5.14581 11.2229C5.14581 12.0977 5.50998 12.889 6.09557 13.4535L5.81797 13.7415C5.15767 13.105 4.74581 12.2111 4.74581 11.2229H5.14581ZM8.24491 8.12377C6.5362 8.12377 5.14581 9.5142 5.14581 11.2229H4.74581C4.74581 9.29329 6.31528 7.72377 8.24491 7.72377V8.12377ZM11.344 11.2229C11.344 9.5142 9.95361 8.12377 8.24491 8.12377V7.72377C10.1745 7.72377 11.744 9.29329 11.744 11.2229H11.344ZM10.3951 13.4526C10.9801 12.8882 11.344 12.0972 11.344 11.2229H11.744C11.744 12.2106 11.3325 13.1041 10.6728 13.7405L10.3951 13.4526ZM11.6673 14.7024C11.312 14.3281 10.8974 14.014 10.4407 13.7735L10.6271 13.4196C11.1225 13.6805 11.5721 14.0211 11.9574 14.427L11.6673 14.7024ZM11.8173 13.4467C11.8173 13.8154 11.882 14.1689 12.0005 14.4968L11.6243 14.6327C11.4903 14.262 11.4173 13.8625 11.4173 13.4467H11.8173ZM14.9164 10.3476C13.2077 10.3476 11.8173 11.738 11.8173 13.4467H11.4173C11.4173 11.5171 12.9868 9.94756 14.9164 9.94756V10.3476ZM18.0155 13.4467C18.0155 11.738 16.6251 10.3476 14.9164 10.3476V9.94756C16.8461 9.94756 18.4155 11.517 18.4155 13.4467H18.0155ZM17.8277 14.5098C17.9491 14.1783 18.0155 13.8203 18.0155 13.4467H18.4155C18.4155 13.868 18.3406 14.2726 18.2033 14.6474L17.8277 14.5098ZM17.8696 14.4418C18.2556 14.0302 18.7078 13.685 19.2069 13.4211L19.3938 13.7747C18.9339 14.0179 18.5171 14.3361 18.1613 14.7154L17.8696 14.4418ZM18.4889 11.2229C18.4889 12.0979 18.8533 12.8894 19.4391 13.4539L19.1616 13.7419C18.501 13.1054 18.0889 12.2113 18.0889 11.2229H18.4889ZM21.588 8.12377C19.8793 8.12377 18.4889 9.5142 18.4889 11.2229H18.0889C18.0889 9.29329 19.6583 7.72377 21.588 7.72377V8.12377ZM21.3044 13.236C20.317 13.0975 19.5551 12.248 19.5551 11.2229H19.9551C19.9551 12.0456 20.5671 12.7287 21.3599 12.8398L21.3044 13.236ZM19.5551 11.2229C19.5551 10.1017 20.4667 9.19004 21.588 9.19004V9.59004C20.6877 9.59004 19.9551 10.3226 19.9551 11.2229H19.5551ZM21.588 9.19004C22.7092 9.19004 23.6208 10.1017 23.6208 11.2229H23.2208C23.2208 10.3226 22.4883 9.59004 21.588 9.59004V9.19004ZM23.6208 11.2229C23.6208 12.248 22.859 13.0974 21.8718 13.2359L21.8162 12.8398C22.6089 12.7286 23.2208 12.0455 23.2208 11.2229H23.6208ZM21.588 12.8313C21.6773 12.8313 21.7661 12.8336 21.8543 12.8381L21.8337 13.2376C21.7523 13.2334 21.6704 13.2313 21.588 13.2313L21.588 12.8313ZM21.3218 12.8382C21.41 12.8336 21.4988 12.8313 21.588 12.8313V13.2313C21.5057 13.2313 21.4239 13.2334 21.3425 13.2376L21.3218 12.8382ZM6.61208 11.2229C6.61208 12.0455 7.22388 12.7285 8.0165 12.8398L7.96088 13.2359C6.97375 13.0973 6.21208 12.2479 6.21208 11.2229H6.61208ZM8.24491 9.59004C7.34461 9.59004 6.61208 10.3226 6.61208 11.2229H6.21208C6.21208 10.1017 7.12369 9.19004 8.24491 9.19004V9.59004ZM9.87773 11.2229C9.87773 10.3226 9.14521 9.59004 8.24491 9.59004V9.19004C9.36612 9.19004 10.2777 10.1017 10.2777 11.2229H9.87773ZM8.47321 12.8398C9.26588 12.7285 9.87773 12.0455 9.87773 11.2229H10.2777C10.2777 12.2479 9.516 13.0974 8.52881 13.2359L8.47321 12.8398ZM8.24489 12.8313C8.33415 12.8313 8.42299 12.8336 8.51134 12.8381L8.49067 13.2376C8.40919 13.2334 8.32725 13.2313 8.24489 13.2313V12.8313ZM7.97838 12.8381C8.06667 12.8336 8.15552 12.8313 8.24489 12.8313V13.2313C8.16241 13.2313 8.08043 13.2334 7.999 13.2376L7.97838 12.8381ZM14.9164 15.4551C14.834 15.4551 14.752 15.4572 14.6706 15.4614L14.65 15.062C14.7383 15.0574 14.8271 15.0551 14.9164 15.0551V15.4551ZM15.1622 15.4614C15.0808 15.4572 14.9989 15.4551 14.9164 15.4551V15.0551C15.0057 15.0551 15.0946 15.0574 15.1828 15.062L15.1622 15.4614ZM16.9493 13.4467C16.9493 14.4715 16.1875 15.3212 15.2003 15.4598L15.1447 15.0637C15.9374 14.9524 16.5493 14.2691 16.5493 13.4467H16.9493ZM14.9164 11.4139C16.0376 11.4139 16.9493 12.3255 16.9493 13.4467H16.5493C16.5493 12.5464 15.8167 11.8139 14.9164 11.8139V11.4139ZM12.8836 13.4467C12.8836 12.3255 13.7952 11.4139 14.9164 11.4139V11.8139C14.0161 11.8139 13.2836 12.5464 13.2836 13.4467H12.8836ZM14.6325 15.4598C13.6453 15.3212 12.8836 14.4718 12.8836 13.4467H13.2836C13.2836 14.2694 13.8955 14.9524 14.6881 15.0637L14.6325 15.4598Z" fill="#3E2FED" mask="url(#path-2-inside-1)"/>
</svg>
