<svg width="30" height="30" viewBox="0 0 30 30" fill="none" xmlns="http://www.w3.org/2000/svg">
<circle cx="15" cy="15" r="15" fill="white"/>
<mask id="path-2-inside-1" fill="white">
<path fill-rule="evenodd" clip-rule="evenodd" d="M14.047 13.4285C14.047 11.4241 12.4164 9.79355 10.4121 9.79355C8.40775 9.79355 6.77717 11.4242 6.77717 13.4285C6.77717 14.4548 7.20477 15.3832 7.89116 16.0448C6.17333 16.9529 5.00004 18.7585 4.99997 20.833V22.0447C4.99997 22.4909 5.36161 22.8524 5.80776 22.8524C6.25395 22.8524 6.61554 22.4908 6.61554 22.0447V20.833C6.61554 18.8467 8.14916 17.2114 10.0947 17.0496C10.1993 17.0587 10.3052 17.0634 10.4121 17.0634C10.519 17.0634 10.6248 17.0587 10.7294 17.0497C12.6749 17.2114 14.2085 18.8464 14.2085 20.833V22.0447C14.2085 22.4909 14.5702 22.8524 15.0163 22.8524C15.4625 22.8524 15.8241 22.4908 15.8241 22.0447V20.833C15.8241 18.7585 14.6508 16.9529 12.933 16.0448C13.6194 15.3832 14.047 14.4548 14.047 13.4285ZM10.1299 15.4283C10.2233 15.4234 10.3174 15.421 10.4121 15.421C10.5067 15.421 10.6008 15.4234 10.6943 15.4283C11.6748 15.2906 12.4315 14.4461 12.4315 13.4285C12.4315 12.3149 11.5257 11.4091 10.4121 11.4091C9.29845 11.4091 8.3927 12.3149 8.3927 13.4285C8.3927 14.4464 9.14938 15.2906 10.1299 15.4283Z"/>
</mask>
<path fill-rule="evenodd" clip-rule="evenodd" d="M14.047 13.4285C14.047 11.4241 12.4164 9.79355 10.4121 9.79355C8.40775 9.79355 6.77717 11.4242 6.77717 13.4285C6.77717 14.4548 7.20477 15.3832 7.89116 16.0448C6.17333 16.9529 5.00004 18.7585 4.99997 20.833V22.0447C4.99997 22.4909 5.36161 22.8524 5.80776 22.8524C6.25395 22.8524 6.61554 22.4908 6.61554 22.0447V20.833C6.61554 18.8467 8.14916 17.2114 10.0947 17.0496C10.1993 17.0587 10.3052 17.0634 10.4121 17.0634C10.519 17.0634 10.6248 17.0587 10.7294 17.0497C12.6749 17.2114 14.2085 18.8464 14.2085 20.833V22.0447C14.2085 22.4909 14.5702 22.8524 15.0163 22.8524C15.4625 22.8524 15.8241 22.4908 15.8241 22.0447V20.833C15.8241 18.7585 14.6508 16.9529 12.933 16.0448C13.6194 15.3832 14.047 14.4548 14.047 13.4285ZM10.1299 15.4283C10.2233 15.4234 10.3174 15.421 10.4121 15.421C10.5067 15.421 10.6008 15.4234 10.6943 15.4283C11.6748 15.2906 12.4315 14.4461 12.4315 13.4285C12.4315 12.3149 11.5257 11.4091 10.4121 11.4091C9.29845 11.4091 8.3927 12.3149 8.3927 13.4285C8.3927 14.4464 9.14938 15.2906 10.1299 15.4283Z" fill="#3E2FED"/>
<path d="M7.89116 16.0448L8.02996 15.9008L8.22886 16.0925L7.98463 16.2216L7.89116 16.0448ZM4.99997 20.833H4.79997V20.833L4.99997 20.833ZM10.0947 17.0496L10.0782 16.8503L10.0951 16.8489L10.112 16.8504L10.0947 17.0496ZM10.7294 17.0497L10.7121 16.8504L10.729 16.8489L10.746 16.8503L10.7294 17.0497ZM12.933 16.0448L12.8396 16.2216L12.5953 16.0925L12.7942 15.9008L12.933 16.0448ZM10.1299 15.4283L10.1402 15.628L10.121 15.629L10.1021 15.6263L10.1299 15.4283ZM10.6943 15.4283L10.7221 15.6263L10.7031 15.629L10.684 15.628L10.6943 15.4283ZM10.4121 9.59355C12.5269 9.59355 14.247 11.3137 14.247 13.4285H13.847C13.847 11.5346 12.306 9.99355 10.4121 9.99355V9.59355ZM6.57718 13.4285C6.57718 11.3137 8.2973 9.59355 10.4121 9.59355V9.99355C8.51821 9.99355 6.97717 11.5346 6.97717 13.4285H6.57718ZM7.75237 16.1888C7.02861 15.4912 6.57718 14.5115 6.57718 13.4285H6.97717C6.97717 14.3981 7.38092 15.2752 8.02996 15.9008L7.75237 16.1888ZM4.79997 20.833C4.80004 18.6813 6.01714 16.8092 7.79769 15.868L7.98463 16.2216C6.32952 17.0965 5.20004 18.8358 5.19997 20.833L4.79997 20.833ZM4.79997 22.0447V20.833H5.19997V22.0447H4.79997ZM5.80776 23.0524C5.25116 23.0524 4.79997 22.6013 4.79997 22.0447H5.19997C5.19997 22.3804 5.47206 22.6524 5.80776 22.6524V23.0524ZM6.81554 22.0447C6.81554 22.6013 6.36442 23.0524 5.80776 23.0524V22.6524C6.14349 22.6524 6.41554 22.3804 6.41554 22.0447H6.81554ZM6.81554 20.833V22.0447H6.41554V20.833H6.81554ZM10.1113 17.249C8.26847 17.4022 6.81554 18.9516 6.81554 20.833H6.41554C6.41554 18.7417 8.02985 17.0206 10.0782 16.8503L10.1113 17.249ZM10.4121 17.2634C10.2994 17.2634 10.1878 17.2585 10.0774 17.2489L10.112 16.8504C10.2109 16.859 10.311 16.8634 10.4121 16.8634V17.2634ZM10.7467 17.2489C10.6364 17.2585 10.5248 17.2634 10.4121 17.2634V16.8634C10.5132 16.8634 10.6133 16.859 10.7121 16.8504L10.7467 17.2489ZM14.0085 20.833C14.0085 18.9514 12.5556 17.4022 10.7128 17.249L10.746 16.8503C12.7942 17.0206 14.4085 18.7414 14.4085 20.833H14.0085ZM14.0085 22.0447V20.833H14.4085V22.0447H14.0085ZM15.0163 23.0524C14.4597 23.0524 14.0085 22.6013 14.0085 22.0447H14.4085C14.4085 22.3804 14.6806 22.6524 15.0163 22.6524V23.0524ZM16.0241 22.0447C16.0241 22.6013 15.573 23.0524 15.0163 23.0524V22.6524C15.352 22.6524 15.6241 22.3804 15.6241 22.0447H16.0241ZM16.0241 20.833V22.0447H15.6241V20.833H16.0241ZM13.0265 15.868C14.807 16.8092 16.0241 18.6813 16.0241 20.833H15.6241C15.6241 18.8358 14.4946 17.0965 12.8396 16.2216L13.0265 15.868ZM14.247 13.4285C14.247 14.5115 13.7956 15.4912 13.0718 16.1888L12.7942 15.9008C13.4433 15.2752 13.847 14.3981 13.847 13.4285H14.247ZM10.1196 15.2285C10.2165 15.2235 10.314 15.221 10.4121 15.221V15.621C10.3209 15.621 10.2302 15.6233 10.1402 15.628L10.1196 15.2285ZM10.4121 15.221C10.5102 15.221 10.6077 15.2235 10.7046 15.2285L10.684 15.628C10.5939 15.6233 10.5033 15.621 10.4121 15.621V15.221ZM10.6665 15.2302C11.5497 15.1062 12.2315 14.3449 12.2315 13.4285H12.6315C12.6315 14.5473 11.7999 15.475 10.7221 15.6263L10.6665 15.2302ZM12.2315 13.4285C12.2315 12.4253 11.4153 11.6091 10.4121 11.6091V11.2091C11.6362 11.2091 12.6315 12.2044 12.6315 13.4285H12.2315ZM10.4121 11.6091C9.40891 11.6091 8.5927 12.4253 8.5927 13.4285H8.1927C8.1927 12.2044 9.18799 11.2091 10.4121 11.2091V11.6091ZM8.5927 13.4285C8.5927 14.3452 9.27444 15.1062 10.1577 15.2302L10.1021 15.6263C9.02432 15.475 8.1927 14.5476 8.1927 13.4285H8.5927Z" fill="white" mask="url(#path-2-inside-1)"/>
<path d="M15.6 10C15.6 9.2268 16.2268 8.6 17 8.6H23C23.7732 8.6 24.4 9.2268 24.4 10V13C24.4 13.7732 23.7732 14.4 23 14.4H15.6V10Z" stroke="#3E2FED" stroke-width="1.2"/>
</svg>
